Coordinates
version=1
nRows=27
nColumns=12
inDegrees=yes

Units are S.I. units (second, meters, Newtons, ...)
Angles are in degrees

endheader
time	SC_y	SC_z	SC_x	AC_y	AC_z	AC_x	GH_y	GH_z	GH_yy	EL_x	PS_y
       0.0              -48.12         -4.928          25.43           61.4        -0.2134         -17.22         -67.96         -8.934          1.739           84.6          142.0
 0.0008274              -48.11         -4.927          25.44          61.39        -0.2157         -17.22         -67.94         -8.919          1.759           84.6          142.0
  0.001655              -48.11         -4.926          25.44          61.39        -0.2182         -17.22         -67.92         -8.904          1.781           84.6          142.0
  0.002482               -48.1         -4.924          25.45          61.38        -0.2209         -17.21         -67.89         -8.888          1.803           84.6          142.0
  0.003309               -48.1         -4.923          25.45          61.38        -0.2237         -17.21         -67.87         -8.871          1.828           84.6          142.0
  0.004137              -48.09         -4.922          25.46          61.37        -0.2268         -17.21         -67.84         -8.853          1.854           84.6          141.9
  0.004964              -48.08         -4.921          25.47          61.37          -0.23          -17.2         -67.81         -8.834          1.882          84.59          141.9
  0.005792              -48.07         -4.919          25.48          61.36        -0.2335          -17.2         -67.77         -8.813          1.911          84.59          141.9
  0.006619              -48.07         -4.918          25.48          61.36        -0.2372         -17.19         -67.74          -8.79          1.943          84.59          141.9
  0.007446              -48.06         -4.916          25.49          61.35        -0.2412         -17.18          -67.7         -8.767          1.977          84.59          141.9
  0.008274              -48.05         -4.914           25.5          61.34        -0.2454         -17.18         -67.66         -8.741          2.014          84.59          141.9
  0.009101              -48.04         -4.912          25.51          61.33          -0.25         -17.17         -67.61         -8.713          2.053          84.59          141.9
  0.009928              -48.03          -4.91          25.52          61.32         -0.255         -17.16         -67.57         -8.684          2.096          84.59          141.8
   0.01076              -48.01         -4.908          25.54          61.32        -0.2603         -17.16         -67.52         -8.651          2.142          84.59          141.8
   0.01158               -48.0         -4.906          25.55          61.31        -0.2661         -17.15         -67.46         -8.617          2.191          84.58          141.8
   0.01241              -47.99         -4.903          25.56           61.3        -0.2724         -17.14          -67.4         -8.579          2.245          84.58          141.8
   0.01324              -47.97           -4.9          25.58          61.28        -0.2792         -17.13         -67.34         -8.538          2.304          84.58          141.8
   0.01407              -47.95         -4.897           25.6          61.27        -0.2867         -17.12         -67.27         -8.493          2.368          84.58          141.7
   0.01489              -47.94         -4.894          25.61          61.26        -0.2948          -17.1         -67.19         -8.444          2.437          84.57          141.7
   0.01572              -47.92          -4.89          25.63          61.24        -0.3037         -17.09          -67.1         -8.391          2.514          84.57          141.7
   0.01655              -47.89         -4.886          25.66          61.22        -0.3134         -17.08         -67.01         -8.332          2.597          84.57          141.6
   0.01737              -47.87         -4.882          25.68          61.21        -0.3242         -17.06         -66.91         -8.268          2.689          84.57          141.6
    0.0182              -47.84         -4.877          25.71          61.19         -0.336         -17.04          -66.8         -8.197          2.791          84.56          141.6
   0.01903              -47.81         -4.872          25.74          61.16        -0.3492         -17.02         -66.67         -8.118          2.904          84.56          141.5
   0.01986              -47.78         -4.866          25.77          61.14        -0.3638          -17.0         -66.53          -8.03          3.029          84.55          141.5
   0.02068              -47.74         -4.859          25.81          61.11        -0.3801         -16.98         -66.38         -7.932          3.169          84.55          141.4
   0.02151               -47.7         -4.851          25.85          61.08        -0.3984         -16.95          -66.2         -7.822          3.326          84.54          141.4
